<svg aria-hidden="true" style="position:absolute;width:0;height:0"
xmlns="http://www.w3.org/2000/svg" overflow="hidden">   
    <defs>
        <!-- Envelope -->
        <symbol id="envelope" viewBox="0 0 16 12">
            <path fill="#757575" d="M14.5 0h-13C.67 0 0 .67 0 1.5v9c0 .83.67 1.5 1.5 1.5h13c.83 0 1.5-.67 1.5-1.5v-9c0-.83-.67-1.5-1.5-1.5Zm0 1a.5.5 0 0 1 .2.04L8 6.84l-6.7-5.8A.5.5 0 0 1 1.5 1h13Zm0 10h-13a.5.5 0 0 1-.5-.5V2.1l6.67 5.78a.5.5 0 0 0 .66 0L15 2.1v8.4a.5.5 0 0 1-.5.5Z"/>
        </symbol>
        <!-- Smartphone -->
        <symbol id="smartphone" viewBox="0 0 10 16">
            <path fill="#757575" d="M8.5 0h-7C.67 0 0 .67 0 1.5v13c0 .83.67 1.5 1.5 1.5h7c.83 0 1.5-.67 1.5-1.5v-13C10 .67 9.33 0 8.5 0Zm-7 1h7c.28 0 .5.22.5.5V12H1V1.5c0-.28.22-.5.5-.5Zm7 14h-7a.5.5 0 0 1-.5-.5V13h8v1.5a.5.5 0 0 1-.5.5Z"/>
            <path fill="#757575" d="M2.35 13.74c.2.18.2.48 0 .66a.53.53 0 0 1-.7 0 .45.45 0 0 1 0-.66c.2-.18.5-.18.7 0Z"/>
        </symbol>
        <!-- Facebook -->
        <symbol id="facebook" viewBox="0 0 20 20">
            <g clip-path="url(#a)">
                <path fill="#AFB1B8" d="M13.33 3.32h1.83V.14C14.84.1 13.76 0 12.5 0 9.86 0 8.06 1.66 8.06 4.7v2.8h-2.9v3.55h2.9V20h3.56v-8.94h2.79l.44-3.56h-3.23V5.05c0-1.03.28-1.73 1.71-1.73Z"/>
            </g>
            <defs>
                <clipPath id="a">
                <path fill="#fff" d="M0 0h20v20H0z"/>
                </clipPath>
            </defs>
        </symbol>
        <!-- Instagram -->
        <symbol id="instagram" viewBox="0 0 20 20">
        <g fill="#AFB1B8" clip-path="url(#a)">
            <path d="M19.98 5.88a7.3 7.3 0 0 0-.46-2.43 4.88 4.88 0 0 0-1.16-1.77c-.5-.5-1.1-.9-1.77-1.15a7.33 7.33 0 0 0-2.43-.47A68.25 68.25 0 0 0 10.04 0C7.32 0 6.98.01 5.92.06 4.85.1 4.12.28 3.49.52a5 5 0 0 0-1.77 1.16A5 5 0 0 0 .56 3.45 7.33 7.33 0 0 0 .1 5.88 68.25 68.25 0 0 0 .04 10c0 2.72 0 3.06.05 4.12a7.3 7.3 0 0 0 .47 2.43c.25.67.65 1.27 1.16 1.77a5 5 0 0 0 1.77 1.16c.63.24 1.36.41 2.42.46 1.07.05 1.4.06 4.12.06s3.06-.01 4.13-.06a7.3 7.3 0 0 0 2.42-.46 5.12 5.12 0 0 0 2.93-2.93c.24-.64.42-1.36.46-2.43.05-1.06.06-1.4.06-4.12 0-2.71 0-3.05-.05-4.12Zm-1.8 8.17c-.04.97-.2 1.5-.34 1.85a3.32 3.32 0 0 1-1.9 1.9c-.35.14-.89.3-1.86.34-1.05.05-1.37.06-4.04.06A70.3 70.3 0 0 1 6 18.14c-.98-.04-1.5-.2-1.85-.34A3.08 3.08 0 0 1 3 17.05a3.1 3.1 0 0 1-.75-1.14 5.5 5.5 0 0 1-.34-1.86 70.37 70.37 0 0 1-.06-4.04c0-2.67.01-2.99.06-4.04.04-.98.2-1.5.34-1.86.16-.43.41-.82.75-1.14a3.1 3.1 0 0 1 1.15-.75c.35-.14.88-.3 1.86-.34 1.05-.05 1.37-.06 4.03-.06 2.68 0 3 0 4.04.06.98.04 1.5.2 1.86.34.43.16.83.41 1.15.75.33.32.59.71.75 1.14.13.36.3.89.34 1.86.05 1.05.06 1.37.06 4.04s-.01 2.98-.06 4.04Z"/>
            <path d="M10.04 4.86a5.14 5.14 0 1 0 0 10.28 5.14 5.14 0 0 0 0-10.28Zm0 8.47a3.33 3.33 0 1 1 0-6.66 3.33 3.33 0 0 1 0 6.66Zm6.54-8.67a1.2 1.2 0 1 1-2.4 0 1.2 1.2 0 0 1 2.4 0Z"/>
        </g>
        <defs>
            <clipPath id="a">
            <path fill="#fff" d="M0 0h20v20H0z"/>
            </clipPath>
        </defs>
        </symbol>
        <!-- Twitter -->
        <symbol id="twitter" viewBox="0 0 20 20">
        <g clip-path="url(#a)">
            <path fill="#AFB1B8" d="M20 3.8a8.6 8.6 0 0 1-2.36.65c.85-.51 1.5-1.3 1.8-2.27-.8.47-1.67.8-2.6 1a4.1 4.1 0 0 0-7 3.73A11.6 11.6 0 0 1 1.4 2.62 4.13 4.13 0 0 0 2.65 8.1C2 8.1 1.35 7.9.8 7.6v.04c0 2 1.42 3.65 3.29 4.03a4.09 4.09 0 0 1-1.86.07 4.14 4.14 0 0 0 3.84 2.85A8.24 8.24 0 0 1 0 16.3a11.54 11.54 0 0 0 6.29 1.84c7.55 0 11.67-6.25 11.67-11.67 0-.18 0-.36-.02-.53.82-.58 1.5-1.3 2.06-2.13Z"/>
        </g>
        <defs>
            <clipPath id="a">
            <path fill="#fff" d="M0 0h20v20H0z"/>
            </clipPath>
        </defs>
        </symbol>
        <!-- Linkedin -->
        <symbol id="linkedin" viewBox="0 0 20 20">
        <g fill="#AFB1B8" clip-path="url(#a)">
            <path d="M20 20v-7.34c0-3.58-.77-6.35-4.97-6.35a4.35 4.35 0 0 0-3.92 2.16h-.06V6.65H7.07V20h4.15v-6.61c0-1.74.33-3.43 2.48-3.43 2.13 0 2.16 1.99 2.16 3.54V20H20ZM.33 6.65h4.15V20H.33V6.65ZM2.4 0A2.4 2.4 0 0 0 0 2.4a2.42 2.42 0 0 0 2.4 2.43c1.33 0 2.4-1.1 2.4-2.43A2.4 2.4 0 0 0 2.4 0Z"/>
        </g>
        <defs>
            <clipPath id="a">
            <path fill="#fff" d="M0 0h20v20H0z"/>
            </clipPath>
        </defs>
        </symbol>
    </defs>
</svg>